HIERARCHY
ROOT Hips
{
	OFFSET	0.00	0.00	0.00
	CHANNELS 6 Xposition Yposition Zposition Zrotation Xrotation Yrotation
	JOINT LeftUpLeg
	{
		OFFSET	 0.126116	-0.014019	-0.065224
		CHANNELS 3 Zrotation Xrotation Yrotation
		JOINT LeftLeg
		{
			OFFSET	 0.000000	 0.000000	 0.569914
			CHANNELS 3 Zrotation Xrotation Yrotation
			JOINT LeftFoot
			{
				OFFSET	 0.000000	 0.000000	 0.544423
				CHANNELS 3 Zrotation Xrotation Yrotation
				JOINT LeftToeBase
				{
					OFFSET	 0.000000	 0.000000	 0.207117
					CHANNELS 3 Zrotation Xrotation Yrotation
					End Site
					{
						OFFSET	 0.000000	 0.000000	 0.207117
					}
				}
			}
		}
	}
	JOINT RightUpLeg
	{
		OFFSET	-0.124023	-0.008373	-0.065224
		CHANNELS 3 Zrotation Xrotation Yrotation
		JOINT RightLeg
		{
			OFFSET	 0.000000	 0.000000	 0.570047
			CHANNELS 3 Zrotation Xrotation Yrotation
			JOINT RightFoot
			{
				OFFSET	 0.000000	 0.000000	 0.544354
				CHANNELS 3 Zrotation Xrotation Yrotation
				JOINT RightToeBase
				{
					OFFSET	 0.000000	 0.000000	 0.207540
					CHANNELS 3 Zrotation Xrotation Yrotation
					End Site
					{
						OFFSET	 0.000000	 0.000000	 0.207540
					}
				}
			}
		}
	}
	JOINT Spine
	{
		OFFSET	 0.000184	-0.007763	 0.117403
		CHANNELS 3 Zrotation Xrotation Yrotation
		JOINT Spine1
		{
			OFFSET	 0.000000	 0.000000	 0.137269
			CHANNELS 3 Zrotation Xrotation Yrotation
			JOINT Spine2
			{
				OFFSET	 0.000000	 0.000000	 0.156879
				CHANNELS 3 Zrotation Xrotation Yrotation
				JOINT LeftShoulder
				{
					OFFSET	 0.080501	-0.002496	 0.160144
					CHANNELS 3 Zrotation Xrotation Yrotation
					JOINT LeftArm
					{
						OFFSET	 0.000000	 0.000000	 0.164363
						CHANNELS 3 Zrotation Xrotation Yrotation
						JOINT LeftForeArm
						{
							OFFSET	 0.000000	 0.000000	 0.364576
							CHANNELS 3 Zrotation Xrotation Yrotation
							JOINT LeftHand
							{
								OFFSET	 0.000000	 0.000000	 0.360812
								CHANNELS 3 Zrotation Xrotation Yrotation
								JOINT LeftHandIndex1
								{
									OFFSET	 0.000000	 0.000000	 0.086006
									CHANNELS 3 Zrotation Xrotation Yrotation
									JOINT LeftHandIndex2
									{
										OFFSET	 0.000000	 0.000000	 0.047236
										CHANNELS 3 Zrotation Xrotation Yrotation
										JOINT LeftHandIndex3
										{
											OFFSET	-0.004284	-0.000551	 0.038166
											CHANNELS 3 Zrotation Xrotation Yrotation
											End Site
											{
												OFFSET	-0.004284	-0.000551	 0.038166
											}
										}
									}
								}
							}
						}
					}
				}
				JOINT Neck
				{
					OFFSET	 0.000000	 0.000000	 0.176489
					CHANNELS 3 Zrotation Xrotation Yrotation
					JOINT Head
					{
						OFFSET	 0.000000	-0.001747	 0.077940
						CHANNELS 3 Zrotation Xrotation Yrotation
						End Site
						{
							OFFSET	 0.000000	-0.001747	 0.077940
						}
					}
				}
				JOINT RightShoulder
				{
					OFFSET	-0.080363	 0.000306	 0.159706
					CHANNELS 3 Zrotation Xrotation Yrotation
					JOINT RightArm
					{
						OFFSET	 0.000000	 0.000000	 0.164196
						CHANNELS 3 Zrotation Xrotation Yrotation
						JOINT RightForeArm
						{
							OFFSET	 0.000000	 0.000000	 0.365611
							CHANNELS 3 Zrotation Xrotation Yrotation
							JOINT RightHand
							{
								OFFSET	 0.000000	 0.000000	 0.360648
								CHANNELS 3 Zrotation Xrotation Yrotation
								JOINT RightHandIndex1
								{
									OFFSET	 0.000000	 0.000000	 0.069977
									CHANNELS 3 Zrotation Xrotation Yrotation
									JOINT RightHandIndex2
									{
										OFFSET	 0.000000	 0.000000	 0.052305
										CHANNELS 3 Zrotation Xrotation Yrotation
										JOINT RightHandIndex3
										{
											OFFSET	 0.009002	-0.000782	 0.042196
											CHANNELS 3 Zrotation Xrotation Yrotation
											End Site
											{
												OFFSET	 0.009002	-0.000782	 0.042196
											}
										}
									}
								}
							}
						}
					}
				}
			}
		}
	}
}
MOTION
Frames:    9
Frame Time: 0.03333334
 0.012107	 0.067195	 1.201899	 4.206266	-1.805965	-3.702094	 1.630814	-12.054570	-171.234800	 0.384657	-38.638480	 0.006612	 49.587220	 80.557640	-53.054930	-2.371139	 31.321590	-0.063291	-3.726346	-28.856290	-174.633200	 10.443090	-53.478370	 9.003940	 12.418090	 71.867220	-7.748581	 2.357945	 33.149420	 0.106700	 2.417153	 8.938045	 0.839778	 1.969098	 3.390200	 3.412156	-9.427165	-2.682038	-4.417039	-93.788500	 58.857590	 175.720600	 23.161590	 43.987930	-25.925080	-0.687551	-1.806528	-15.115470	 0.870766	-4.031919	-6.024487	-4.870854	 19.208350	-2.785187	-3.885899	 21.416920	 2.207187	-4.807927	 5.549431	 0.146742	-0.121253	-5.021009	 0.161046	-11.470810	 1.615473	 2.152385	 89.827140	 61.588060	-179.892900	-19.702000	 50.902630	 8.904926	-1.114936	-2.951482	 15.514850	-5.057897	 10.047230	 0.765060	 6.303268	 25.872940	-0.573639	 1.744940	 45.811880	-6.867431	 0.370361	 24.955920	 3.648045
 0.011556	 0.058011	 1.197516	 5.402877	-1.113590	-3.671367	 0.533582	-13.109380	-171.244800	 1.125487	-39.915740	 0.495877	 52.065030	 81.030560	-56.160870	-2.369086	 31.667360	-0.071112	-6.489521	-31.099230	-174.772700	 12.001540	-53.258840	 10.285270	 37.832280	 81.601770	-34.918160	 2.358943	 33.003360	 0.103302	 1.605672	 8.650792	 0.638414	 2.033621	 2.472027	 3.654805	-9.561199	-2.175115	-4.370707	-94.027600	 58.967600	 175.197800	 23.902670	 43.106590	-25.740350	-1.704719	-1.791965	-17.571140	 1.573844	-4.417150	-7.766903	-4.867790	 19.303740	-2.794934	-3.874600	 21.561310	 2.195715	-4.805350	 5.579822	 0.144961	-0.056073	-5.092480	 0.206792	-11.417720	 1.781957	 1.923456	 89.747150	 61.701960	 179.916600	-19.008970	 51.375080	 7.808418	-1.674045	-3.168562	 15.839260	-5.041148	 10.776020	 0.459751	 6.285175	 24.181720	-0.542796	 1.968630	 44.019650	-7.067073	 0.663526	 23.670830	 3.499297
 0.011104	 0.047173	 1.194304	 6.104460	-0.436938	-3.721549	-0.107328	-13.715500	-171.227400	 1.434934	-40.667400	 0.705291	 54.157600	 81.356550	-58.501360	-2.367732	 31.890130	-0.076168	-8.249251	-33.181630	-174.896500	 13.113050	-52.430070	 11.074220	 91.434130	 83.347490	-90.027690	 2.359274	 32.955360	 0.102187	 1.167355	 8.243144	 0.515551	 2.041401	 1.971287	 3.880957	-9.623528	-1.898432	-4.379120	-94.208940	 58.993880	 174.807500	 23.976090	 42.260670	-25.450700	-2.052547	-1.899917	-19.694090	 2.136843	-4.801877	-8.294931	-4.860565	 19.484390	-2.806013	-3.863736	 21.699690	 2.184684	-4.802401	 5.614528	 0.142928	-0.020431	-5.123196	 0.260903	-11.383240	 1.903746	 1.842880	 89.671700	 61.831180	 179.735100	-18.524560	 51.808410	 6.883600	-2.307359	-3.392520	 16.003430	-5.238692	 11.298310	 0.136482	 6.266114	 22.861970	-0.564575	 2.117096	 42.757440	-7.198418	 0.948770	 22.392000	 3.359810
 0.010949	 0.029263	 1.190525	 6.502282	 0.294506	-4.059762	-0.401416	-13.785430	-170.958400	 1.645432	-41.110350	 0.850053	 58.330750	 81.820990	-62.861190	-2.365335	 32.272880	-0.084908	-8.678601	-35.696380	-174.601900	 13.920380	-50.623150	 11.446350	 112.169200	 80.524570	-112.469400	 2.361565	 32.611590	 0.094236	 0.915059	 7.699999	 0.681040	 2.047309	 1.815556	 4.045925	-9.626482	-1.709104	-4.375029	-94.381710	 58.984410	 174.440700	 23.595130	 40.935750	-25.382830	-2.879765	-1.817888	-22.110750	 2.077268	-5.483062	-7.758796	-4.844969	 19.837800	-2.820362	-3.847202	 21.909550	 2.167871	-4.793002	 5.725269	 0.136430	-0.003777	-5.188895	 0.319523	-11.345640	 2.034262	 1.847693	 89.546710	 61.972270	 179.432200	-17.920990	 52.315810	 5.785282	-3.448104	-3.742043	 16.029020	-5.679340	 11.969120	-0.774922	 6.235897	 21.125070	-0.625548	 2.270732	 41.385720	-7.333256	 1.340855	 20.588940	 3.176866
 0.010497	 0.000096	 1.185649	 6.651730	 0.700346	-4.408909	-0.627087	-12.740940	-170.769400	 1.791268	-41.303600	 0.949622	 62.664510	 82.308820	-67.286990	-2.357646	 33.425160	-0.111556	-7.098740	-37.866160	-173.821400	 13.061450	-47.072730	 10.210230	 133.488200	 73.279240	-134.728300	 2.351257	 34.086790	 0.128714	 0.582528	 7.232196	 0.936997	 2.036074	 2.271630	 3.980946	-9.504920	-1.671956	-4.249032	-94.483280	 58.958900	 174.228300	 22.113750	 39.152510	-25.687500	-3.601069	-1.697033	-24.352730	 1.652953	-5.656649	-7.191772	-4.823400	 20.269620	-2.824768	-3.821857	 22.228600	 2.142141	-4.767793	 6.021070	 0.118979	 0.027282	-5.290428	 0.345736	-11.187570	 2.157519	 1.798589	 89.432930	 62.055430	 179.155000	-16.902310	 52.894180	 4.205007	-4.967124	-4.127123	 15.747560	-5.969074	 12.433540	-2.361930	 6.190668	 18.776870	-0.719293	 2.567846	 38.527670	-7.590553	 1.832047	 18.257890	 2.962717
 0.009106	-0.038468	 1.179620	 6.975936	 0.722132	-4.620176	-1.206194	-10.692120	-170.835800	 2.104574	-41.227520	 1.154765	 61.471900	 82.483150	-66.218220	-2.335145	 36.293720	-0.180389	-6.222418	-39.187690	-173.192400	 12.814130	-41.310220	 9.054680	 124.165300	 73.077350	-126.544200	 2.335217	 36.088560	 0.177030	-0.176003	 7.433889	 1.057100	 1.968217	 2.295055	 3.997026	-9.279633	-1.618362	-4.166408	-94.544430	 58.921680	 174.104400	 19.726720	 37.333060	-26.482990	-3.654883	-1.752054	-25.368000	 1.325047	-6.697908	-7.556912	-4.845551	 20.504380	-3.022266	-3.789769	 22.629100	 2.109545	-4.724586	 6.525420	 0.088902	 0.108032	-5.398812	 0.349834	-10.866220	 2.405600	 1.550418	 89.358270	 61.954060	 178.978200	-15.565330	 53.312260	 1.963898	-6.353497	-4.382915	 15.206090	-5.825643	 12.187360	-3.866790	 6.164552	 16.254970	-0.680725	 2.867327	 35.344150	-7.844564	 2.342680	 15.752900	 2.758826
 0.006407	-0.073521	 1.173342	 7.212040	 0.646784	-4.390309	-1.901526	-8.803010	-171.380100	 2.625795	-41.326410	 1.501469	 51.441360	 81.967620	-56.333630	-2.290784	 40.627780	-0.292589	-5.730371	-39.690140	-173.234000	 11.619810	-36.084520	 7.364954	 97.668150	 76.931630	-99.777310	 2.338459	 35.707810	 0.167688	-0.941705	 7.497237	 0.918148	 1.923830	 2.571772	 3.810027	-9.057838	-1.579058	-4.038455	-94.522700	 59.181580	 174.107400	 17.816000	 36.101660	-27.837240	-3.693103	-1.725026	-25.254420	 0.828104	-7.804188	-8.138443	-4.874906	 20.592650	-3.219180	-3.766686	 22.914360	 2.086112	-4.681431	 7.025550	 0.058659	 0.174023	-5.476532	 0.284138	-10.506370	 2.640345	 1.447305	 89.356190	 61.685840	 178.983200	-14.613340	 53.394110	 0.183193	-7.296634	-4.538661	 14.823390	-5.811006	 11.738610	-4.876475	 6.184461	 14.251890	-0.460203	 3.006334	 33.753060	-7.960359	 2.734664	 13.776740	 2.615937
 0.001683	-0.113762	 1.164119	 7.501543	 0.264472	-3.542359	-2.329490	-6.392536	-172.779200	 2.090307	-41.931570	 1.161330	 34.292040	 79.768680	-38.215630	-2.160859	 48.872110	-0.545400	-4.092372	-40.490630	-173.411600	 7.437596	-32.658760	 4.444068	 44.918650	 77.429380	-42.966610	 2.340768	 35.428460	 0.160897	-1.848513	 7.569529	 0.129389	 1.890182	 3.401217	 3.751164	-8.811121	-1.635386	-4.077221	-94.455130	 59.367570	 174.221400	 16.162320	 34.855080	-29.200620	-3.949515	-1.638139	-25.729260	 0.323210	-8.173981	-8.266366	-4.893174	 20.713200	-3.364367	-3.753997	 23.070380	 2.073225	-4.627419	 7.646334	 0.020543	 0.258379	-5.475846	 0.242062	-10.063460	 2.943665	 1.745709	 89.353780	 61.426280	 178.986800	-13.740790	 53.346100	-1.526937	-8.133439	-4.749033	 14.726480	-6.214013	 11.175500	-5.552095	 6.270050	 12.027530	 0.026423	 3.129543	 32.278270	-8.061748	 3.117271	 11.806300	 2.488377
-0.003457	-0.157550	 1.152225	 8.515226	-0.533529	-2.690789	-2.255776	-3.208936	-174.583400	-0.266816	-42.453620	-0.418193	 18.867480	 73.454720	-19.880160	-1.956740	 56.541200	-0.857991	-1.113212	-42.450840	-172.390400	 6.809741	-32.120620	 4.040607	 7.825749	 68.128140	-2.771123	 2.334173	 36.209710	 0.180007	-3.151019	 7.899228	-0.681387	 1.694448	 4.636609	 3.585378	-8.631176	-1.812199	-4.127852	-94.395170	 59.073970	 174.397800	 14.900980	 33.172160	-30.229440	-4.353839	-1.559057	-27.509900	 0.186526	-7.188814	-7.921572	-4.896135	 20.911880	-3.448310	-3.734964	 23.303010	 2.053913	-4.569978	 8.300273	-0.020305	 0.364447	-5.416131	 0.285543	-9.641204	 3.395931	 2.147518	 89.222220	 61.413790	 178.676500	-13.025960	 53.318500	-2.658546	-8.431866	-4.787401	 14.585860	-6.631219	 10.575200	-4.970849	 6.338226	 9.978129	 0.362333	 3.300383	 30.127710	-8.200202	 3.420338	 10.218630	 2.395979
